<svg xmlns="http://www.w3.org/2000/svg" xmlns:xlink="http://www.w3.org/1999/xlink" version="1.1" width="256" height="256" viewBox="0 0 256 256" xml:space="preserve">
<desc>Created with Fabric.js 1.7.22</desc>
<defs>
</defs>
<g transform="translate(128 128) scale(0.72 0.72)" style="">
	<g style="stroke: none; stroke-width: 0; stroke-dasharray: none; stroke-linecap: butt; stroke-linejoin: miter; stroke-miterlimit: 10; fill: none; fill-rule: nonzero; opacity: 1;" transform="translate(-175.05 -175.05000000000004) scale(3.89 3.89)" >
	<path d="M 42.362 14.245 L 42.362 14.245 c 4.165 4.15 4.171 10.892 0.014 15.05 l -5.077 5.077 l 41.069 0 C 84.24 34.371 89 39.131 89 45.003 v 0 v 0 c 0 5.872 -4.76 10.632 -10.632 10.632 H 37.299 l 5.063 5.063 c 4.152 4.152 4.152 10.884 0 15.036 l 0 0 c -4.152 4.152 -10.884 4.152 -15.036 0 L 4.114 52.521 c -4.152 -4.152 -4.152 -10.884 0 -15.036 L 27.34 14.259 C 31.487 10.112 38.208 10.106 42.362 14.245 z" style="stroke: none; stroke-width: 1; stroke-dasharray: none; stroke-linecap: butt; stroke-linejoin: miter; stroke-miterlimit: 10; fill: rgb(255,255,255); fill-rule: nonzero; opacity: 1;" transform=" matrix(1 0 0 1 0 0) " stroke-linecap="round" />
	<path d="M 34.844 79.847 c 3.107 0 6.028 -1.21 8.226 -3.407 c 2.197 -2.196 3.407 -5.117 3.407 -8.225 c 0 -3.106 -1.21 -6.027 -3.407 -8.225 l -3.356 -3.355 h 38.655 C 84.782 56.635 90 51.417 90 45.003 c 0 -6.414 -5.218 -11.632 -11.632 -11.632 H 39.713 l 3.37 -3.37 c 2.2 -2.2 3.41 -5.124 3.407 -8.235 c -0.002 -3.111 -1.218 -6.034 -3.421 -8.23 l 0 0 c -4.534 -4.517 -11.906 -4.512 -16.435 0.016 L 3.407 36.778 C 1.21 38.975 0 41.896 0 45.002 s 1.21 6.028 3.407 8.225 l 23.212 23.212 C 28.816 78.637 31.737 79.847 34.844 79.847 z M 78.368 35.371 c 5.311 0 9.632 4.321 9.632 9.631 c 0 5.311 -4.321 9.632 -9.632 9.632 H 37.299 c -0.404 0 -0.77 0.244 -0.924 0.617 c -0.155 0.374 -0.069 0.804 0.217 1.09 l 5.063 5.063 c 1.819 1.819 2.821 4.238 2.821 6.811 c 0 2.573 -1.001 4.991 -2.821 6.811 c -3.755 3.755 -9.865 3.757 -13.622 0 L 4.821 51.813 C 3.002 49.994 2 47.575 2 45.002 s 1.002 -4.991 2.821 -6.811 l 23.227 -23.226 c 3.75 -3.749 9.854 -3.754 13.608 -0.013 c 1.825 1.818 2.831 4.238 2.833 6.815 c 0.002 2.576 -1 4.998 -2.821 6.819 l -5.077 5.077 c -0.286 0.286 -0.372 0.716 -0.217 1.09 c 0.154 0.374 0.52 0.617 0.924 0.617 H 78.368 z" style="stroke: none; stroke-width: 1; stroke-dasharray: none; stroke-linecap: butt; stroke-linejoin: miter; stroke-miterlimit: 10; fill: rgb(0,0,0); fill-rule: nonzero; opacity: 1;" transform=" matrix(1 0 0 1 0 0) " stroke-linecap="round" />
</g>
</g>
</svg>